<?xml version="1.0" encoding="UTF-8"?>
<svg id="Layer_1" data-name="Layer 1" xmlns="http://www.w3.org/2000/svg" viewBox="0 0 100 100">
  <defs>
    <style>
      .cls-1 {
        fill: #fff;
        stroke-width: 0px;
      }
    </style>
  </defs>
  <path class="cls-1" d="M95,5h0c-2.34-2.34-6.14-2.34-8.48,0l-32.27,32.27c-2.34,2.34-6.14,2.34-8.48,0L13.48,5c-2.34-2.34-6.14-2.34-8.48,0h0c-2.34,2.34-2.34,6.14,0,8.49l32.27,32.27c2.34,2.34,2.34,6.14,0,8.48L5,86.52c-2.34,2.34-2.34,6.14,0,8.48h0c2.34,2.34,6.14,2.34,8.48,0l32.27-32.27c2.34-2.34,6.14-2.34,8.48,0l32.27,32.27c2.34,2.34,6.14,2.34,8.48,0h0c2.34-2.34,2.34-6.14,0-8.48l-32.27-32.27c-2.34-2.34-2.34-6.14,0-8.48L95,13.48c2.34-2.34,2.34-6.14,0-8.48Z"/>
</svg>